# AST/ASF file generated using VICON BodyLanguage
# -----------------------------------------------
:version 1.10
:name VICON
:units
  mass 1.0
  length 0.45
  angle deg
:documentation
   .ast/.asf automatically generated from VICON data using
   VICON BodyBuilder and BodyLanguage model FoxedUp or BRILLIANT.MOD
:root
   order TX TY TZ RX RY RZ
   axis XYZ
   position 0 0 0  
   orientation 0 0 0 
:bonedata
  begin
     id 1 
     name lhipjoint
     direction 0.603808 -0.713975 0.35448 
     length 2.2025 
     axis 0 0 0  XYZ
  end
  begin
     id 2 
     name lfemur
     direction 0.34202 -0.939693 0  
     length 6.55877  
     axis 0 0 20  XYZ
    dof rx ry rz
    limits (-160.0 20.0)
           (-70.0 70.0)
           (-60.0 70.0)
  end
  begin
     id 3 
     name ltibia
     direction 0.34202 -0.939693 0   
     length 6.80302   
     axis 0 0 20   XYZ
    dof rx
    limits (-10.0 170.0)
  end
  begin
     id 4 
     name lfoot
     direction 0.091848 -0.25235 0.963267   
     length 2.03446   
     axis -90 7.62852e-016 20   XYZ
    dof rx rz
    limits (-45.0 90.0)
           (-70.0 20.0)
  end
  begin
     id 5 
     name ltoes
     direction 1.53608e-011 -4.21925e-011 1   
     length 1.02033   
     axis -90 7.62852e-016 20   XYZ
    dof rx
    limits (-90.0 20.0)
  end
  begin
     id 6 
     name rhipjoint
     direction -0.587285 -0.724947 0.359928   
     length 2.16916  
     axis 0 0 0  XYZ 
  end
  begin
     id 7 
     name rfemur
     direction -0.34202 -0.939693 0   
     length 6.43173   
     axis 0 0 -20   XYZ
    dof rx ry rz
    limits (-160.0 20.0)
           (-70.0 70.0)
           (-70.0 60.0)
  end
  begin
     id 8 
     name rtibia
     direction -0.34202 -0.939693 0   
     length 6.70662   
     axis 0 0 -20   XYZ
    dof rx
    limits (-10.0 170.0)
 end
 begin
     id 9 
     name rfoot
     direction -0.11854 -0.325686 0.938018   
     length 2.0773  
     axis -90 -7.62852e-016 -20   XYZ
    dof rx rz
    limits (-45.0 90.0)
           (-20.0 70.0)
  end
  begin
     id 10 
     name rtoes
     direction -1.53547e-011 -4.21838e-011 1   
     length 1.03267   
     axis -90 -7.62852e-016 -20   XYZ
    dof rx
    limits (-90.0 20.0)
  end
  begin
     id 11 
     name lowerback
     direction -0.0286554 0.999539 0.0100613   
     length 2.08751   
     axis 0 0 0   XYZ
    dof rx ry rz
    limits (-20.0 45.0)
           (-30.0 30.0)
           (-30.0 30.0)
  end
  begin
     id 12 
     name upperback
     direction 0.0227093 0.999705 -0.00860929   
     length 2.08517   
     axis 0 0 0   XYZ
    dof rx ry rz
    limits (-20.0 45.0)
           (-30.0 30.0)
           (-30.0 30.0)
  end
  begin
     id 13 
     name thorax
     direction 0.0351627 0.999285 -0.013892   
     length 2.08412   
     axis 0 0 0   XYZ
    dof rx ry rz
    limits (-20.0 45.0)
           (-30.0 30.0)
           (-30.0 30.0)
  end
  begin
     id 14 
     name lowerneck
     direction -0.0696283 0.997344 0.0213922   
     length 1.44164   
     axis 0 0 0   XYZ
    dof rx ry rz
    limits (-20.0 45.0)
           (-30.0 30.0)
           (-30.0 30.0)
  end
  begin
     id 15 
     name upperneck
     direction 0.0531 0.990412 -0.127531   
     length 1.45022   
     axis 0 0 0   XYZ
    dof rx ry rz
    limits (-20.0 45.0)
           (-30.0 30.0)
           (-30.0 30.0)
  end
  begin
     id 16
     name head
     direction 0.0188154 0.998548 -0.0504727  
     length 1.45845  
     axis 0 0 0   XYZ
    dof rx ry rz
    limits (-20.0 45.0)
           (-30.0 30.0)
           (-30.0 30.0)
  end
  begin
     id 17 
     name lclavicle
     direction 0.961559 0.260051 0.088188  
     length 2.86057  
     axis 0 0 0   XYZ
    dof ry rz
    limits (-20.0 10.0)
           (0.0 20.0)
  end
  begin
     id 18 
     name lhumerus
     direction 1 -4.48959e-011 2.88185e-027   
     length 4.36901   
     axis 180 -30 -90   XYZ
    dof rx ry rz
    limits (-60.0 90.0)
           (-90.0 90.0)
           (-90.0 90.0)
  end
  begin
     id 19
     name lradius
     direction 1 -4.48965e-011 -3.92618e-028   
     length 3.21737   
     axis 180 -30 -90   XYZ
    dof rx
    limits (-10.0 170.0)
  end
  begin
     id 20
     name lwrist
     direction 1 -4.49037e-011 2.57246e-027   
     length 1.60869   
     axis -1.61769e-015 90 90   XYZ
    dof ry
    limits (-180.0 0.0)
 end
  begin
     id 21 
     name lhand
     direction 1 -4.48807e-011 5.12958e-027   
     length 0.564313   
     axis -3.27988e-015 90 90   XYZ
    dof rx rz
    limits (-90.0 90.0)
           (-45.0 45.0)
  end
  begin
     id 22 
     name lfingers
     direction 1 -4.48879e-011 1.02687e-026   
     length 0.454963   
     axis -6.5598e-015 90 90   XYZ
    dof rx
    limits (0.0 90.0)
  end
  begin
     id 23
     name lthumb
     direction 0.707107 -6.3475e-011 0.707107   
     length 0.653239   
     axis -90 45 2.19363e-014   XYZ
    dof rx rz
    limits (-45.0 45.0)
           (-45.0 45.0)
  end
  begin
     id 24 
     name rclavicle
     direction -0.954677 0.253915 0.155304   
     length 3.11497  
     axis 0 0 0   XYZ 
    dof ry rz
    limits (-10.0 20.0)
           (-20.0 0.0)
  end
  begin
     id 25 
     name rhumerus
     direction -1 -4.48958e-011 -8.20169e-028  
     length 4.34118   
     axis 180 30 90   XYZ
    dof rx ry rz
    limits (-90.0 60.0)
           (-90.0 90.0)
           (-90.0 90.0)
  end
  begin
     id 26 
     name rradius
     direction -1 -4.48978e-011 1.5676e-027   
     length 3.09531   
     axis 180 30 90   XYZ
    dof rx
    limits (-10.0 170.0)
  end
  begin
     id 27 
     name rwrist
     direction -1 -4.49001e-011 2.57123e-027   
     length 1.54765   
     axis -1.61769e-015 -90 -90   XYZ
    dof ry
    limits (-180.0 0.0)
  end
  begin
     id 28
     name rhand
     direction -1 -4.48847e-011 5.13225e-027   
     length 0.597446   
     axis -3.27988e-015 -90 -90   XYZ
    dof rx rz
    limits (-90.0 90.0)
           (-45.0 45.0)
  end
  begin
     id 29
     name rfingers
     direction -1 -4.49094e-011 1.02974e-026   
     length 0.481677   
     axis -6.5598e-015 -90 -90   XYZ
    dof rx
    limits (0.0 90.0)
  end
  begin
     id 30
     name rthumb
     direction -0.707107 -6.34859e-011 0.707107   
     length 0.691594   
     axis -90 -45 -2.19363e-014   XYZ
    dof rx rz
    limits (-45.0 45.0)
           (-45.0 45.0)
  end
:hierarchy
  begin
    root lhipjoint rhipjoint lowerback
    lhipjoint lfemur
    lfemur ltibia
    ltibia lfoot
    lfoot ltoes
    rhipjoint rfemur
    rfemur rtibia
    rtibia rfoot
    rfoot rtoes
    lowerback upperback
    upperback thorax
    thorax lowerneck lclavicle rclavicle
    lowerneck upperneck
    upperneck head
    lclavicle lhumerus
    lhumerus lradius
    lradius lwrist
    lwrist lhand lthumb
    lhand lfingers
    rclavicle rhumerus
    rhumerus rradius
    rradius rwrist
    rwrist rhand rthumb
    rhand rfingers
  end

#!OML:ASF I:\Acrobat_Osman\acrobat\cartwheel_test 2\Patient 1\Session 1\acrobat.ASF
:FULLY-SPECIFIED
:DEGREES
283
root 12.2117 16.7593 -9.50965 -190.147 330.528 -16.4461
lowerback 10.3745 -2.00484 0.810863
upperback -7.128 -2.30146 3.35295
thorax -13.5931 -1.01555 3.77652
lowerneck -19.2193 -8.54685 -12.4218
upperneck -1.22713 -9.41984 5.64262
head 3.40129 -4.67528 2.84867
rclavicle 4.92986e-014 1.33583e-013
rhumerus -0.679328 48.3088 -80.157
rradius 98.0643
rwrist -15.6439
rhand -43.1927 43.5723
rfingers 7.12502
rthumb -16.0439 14.2166
lclavicle 4.92986e-014 1.33583e-013
lhumerus 42.6779 24.9248 1.72886
lradius 48.7679
lwrist -31.2028
lhand -46.2532 -291.736
lfingers 7.12502
lthumb -18.9892 -97.357
rfemur -7.38279 5.28268 11.1579
rtibia 40.6395
rfoot -2.26981 -2.14616
rtoes -16.9657
lfemur -410.453 24.9805 -371.089
ltibia 64.8349
lfoot -20.1555 -11.2672
ltoes -36.5943
284
root 12.2596 16.6092 -9.74013 -190.916 334.19 -17.8956
lowerback 10.0211 -1.87799 0.0742454
upperback -7.25619 -2.35718 2.56815
thorax -13.5174 -1.02224 3.31743
lowerneck -20.9455 -8.09534 -11.8548
upperneck 0.569953 -8.67587 5.81553
head 4.14277 -4.25283 2.81519
rclavicle 1.59028e-015 5.40694e-014
rhumerus -2.31576 45.2155 -79.4557
rradius 99.3034
rwrist -14.083
rhand -42.283 44.1712
rfingers 7.12502
rthumb -15.1678 14.7471
lclavicle 1.59028e-015 5.40694e-014
lhumerus 42.6634 25.0312 0.87064
lradius 48.3006
lwrist -30.3772
lhand -46.5509 -292.659
lfingers 7.12502
lthumb -19.2755 -96.406
rfemur -4.7287 5.8215 11.4963
rtibia 38.3234
rfoot -1.22633 -1.76112
rtoes -17.7832
lfemur -413.946 27.8863 -368.066
ltibia 66.5416
lfoot -21.205 -6.50611
ltoes -37.2008
285
root 12.3423 16.5421 -9.97653 -191.857 337.303 -19.4259
lowerback 9.65414 -1.71905 -1.05319
upperback -7.2223 -2.38752 2.03642
thorax -13.2229 -0.968776 3.34718
lowerneck -21.9072 -7.66919 -11.3013
upperneck 1.30776 -8.06118 5.31373
head 4.42005 -3.94931 2.6084
rclavicle 2.22639e-014 1.145e-013
rhumerus -2.73217 42.1315 -76.7925
rradius 99.7581
rwrist -12.9695
rhand -40.195 45.6393
rfingers 7.12502
rthumb -13.1558 16.0743
lclavicle 2.22639e-014 1.145e-013
lhumerus 42.0895 25.2522 -0.111015
lradius 48.1464
lwrist -28.7438
lhand -46.6629 -292.062
lfingers 7.12502
lthumb -19.3832 -96.9921
rfemur -1.99127 6.34323 11.4704
rtibia 36.0339
rfoot -0.349561 -2.33599
rtoes -17.6773
lfemur -416.715 30.5113 -364.81
ltibia 67.2104
lfoot -21.0492 -1.55872
ltoes -38.3096
286
root 12.4335 16.4774 -10.2113 -193.04 339.909 -20.8047
lowerback 9.59981 -1.67758 -1.90438
upperback -7.2024 -2.527 1.53435
thorax -13.1454 -0.987562 3.29635
lowerneck -22.6397 -7.27798 -11.7801
upperneck 2.15853 -7.33737 6.07649
head 4.79388 -3.51686 2.98385
rclavicle 1.43125e-014 7.63333e-014
rhumerus -3.06531 39.2688 -73.8606
rradius 99.4896
rwrist -12.4537
rhand -39.6801 46.3833
rfingers 7.12502
rthumb -12.6594 16.7869
lclavicle 1.43125e-014 7.63333e-014
lhumerus 40.8777 25.4306 -1.81112
lradius 48.3234
lwrist -26.8854
lhand -46.3609 -292.244
lfingers 7.12502
lthumb -19.0928 -96.8389
rfemur 0.893346 6.9366 11.4387
rtibia 33.6356
rfoot 0.120015 -3.3067
rtoes -16.0485
lfemur -419.627 32.6676 -361.606
ltibia 66.9004
lfoot -19.3889 6.0025
ltoes -41.7187
287
root 12.5369 16.4015 -10.4493 -194.304 342.122 -22.1016
lowerback 9.55773 -1.7297 -2.53591
upperback -7.17788 -2.75345 1.10221
thorax -13.0704 -1.06599 3.21781
lowerneck -21.1277 -6.66526 -10.7509
upperneck 0.243802 -6.87954 5.09081
head 3.8606 -3.34789 2.62518
rclavicle 5.24792e-014 1.33583e-013
rhumerus -3.19515 36.6625 -70.941
rradius 98.4954
rwrist -12.7594
rhand -40.1793 45.4523
rfingers 7.12502
rthumb -13.1406 15.8863
lclavicle 5.24792e-014 1.33583e-013
lhumerus 40.1978 25.9673 -2.64121
lradius 48.0405
lwrist -26.046
lhand -46.394 -292.762
lfingers 7.12502
lthumb -19.1246 -96.3173
rfemur 3.65658 7.59125 11.3388
rtibia 31.3977
rfoot 0.897568 -3.14327
rtoes -19.1388
lfemur -422.408 34.5362 -358.076
ltibia 65.5617
lfoot -16.0053 12.1702
ltoes -41.8117
288
root 12.6554 16.3197 -10.694 -195.687 343.866 -23.3327
lowerback 9.43945 -1.83685 -3.04945
upperback -6.9817 -3.02298 0.684623
thorax -12.7497 -1.1832 3.08668
lowerneck -20.1977 -6.05292 -9.1997
upperneck -1.4452 -6.46741 3.64644
head 3.07012 -3.21276 2.02451
rclavicle 6.04305e-014 -2.54444e-014
rhumerus -2.92048 33.7525 -68.2223
rradius 96.9216
rwrist -12.8148
rhand -39.9728 44.1748
rfingers 7.12502
rthumb -12.9416 14.5962
lclavicle 6.04305e-014 -2.54444e-014
lhumerus 40.0493 26.7942 -3.24505
lradius 47.4449
lwrist -24.9282
lhand -46.4493 -294.231
lfingers 7.12502
lthumb -19.1778 -94.8438
rfemur 6.58815 8.21705 11.2106
rtibia 28.8645
rfoot 1.14055 -2.96016
rtoes -20.8063
lfemur -424.986 36.0595 -354.418
ltibia 63.2882
lfoot -14.2924 17.4028
ltoes -42.6568
